<?xml version="1.0" encoding="UTF-8" standalone="no"?>
<!-- Created with Inkscape (http://www.inkscape.org/) -->

<svg
   width="5.0217505mm"
   height="5.1233726mm"
   viewBox="0 0 5.0217505 5.1233726"
   version="1.1"
   id="svg5"
   sodipodi:docname="Burn_Baby_Burn.svg"
   inkscape:version="1.2.2 (b0a8486541, 2022-12-01)"
   xmlns:inkscape="http://www.inkscape.org/namespaces/inkscape"
   xmlns:sodipodi="http://sodipodi.sourceforge.net/DTD/sodipodi-0.dtd"
   xmlns="http://www.w3.org/2000/svg"
   xmlns:svg="http://www.w3.org/2000/svg">
  <sodipodi:namedview
     id="namedview7"
     pagecolor="#c23636"
     bordercolor="#000000"
     borderopacity="0.25"
     inkscape:showpageshadow="2"
     inkscape:pageopacity="0.59215686"
     inkscape:pagecheckerboard="0"
     inkscape:deskcolor="#d1d1d1"
     inkscape:document-units="mm"
     showgrid="false"
     inkscape:zoom="18.187654"
     inkscape:cx="13.663114"
     inkscape:cy="11.161417"
     inkscape:window-width="1600"
     inkscape:window-height="846"
     inkscape:window-x="0"
     inkscape:window-y="0"
     inkscape:window-maximized="1"
     inkscape:current-layer="layer1" />
  <defs
     id="defs2" />
  <g
     inkscape:label="Layer 1"
     inkscape:groupmode="layer"
     id="layer1"
     transform="translate(-76.889088,-48.476665)">
    <g
       aria-label="Burn Baby Burn Baby"
       transform="rotate(21.702853,79.459235,51.090772)"
       id="text901"
       style="font-size:0.995025px;font-family:monospace;-inkscape-font-specification:'monospace, Normal';fill:#ffffff;stroke-width:0.083049;fill-opacity:1">
      <path
         d="m 81.441724,51.187793 0.702507,0.105928 -0.02849,0.188909 q -0.01632,0.10823 -0.06517,0.165265 -0.04787,0.05718 -0.142322,0.04294 -0.06887,-0.01038 -0.103185,-0.04977 -0.03431,-0.03939 -0.03525,-0.0999 l -0.0049,-7.41e-4 q -0.01297,0.0393 -0.03558,0.0691 -0.02275,0.03078 -0.05917,0.04542 -0.03642,0.01463 -0.09152,0.0063 -0.09544,-0.01439 -0.140504,-0.08257 -0.04506,-0.06818 -0.02934,-0.172472 z m 0.375696,0.257904 q -0.01113,0.07379 0.01167,0.109432 0.02379,0.03579 0.08085,0.04439 0.05805,0.0088 0.08784,-0.02198 0.02964,-0.02974 0.04225,-0.113375 l 0.01484,-0.09839 -0.220394,-0.03323 z m -0.329513,-0.04365 q -0.01276,0.08462 0.01776,0.122425 0.03052,0.03781 0.08661,0.04627 0.05707,0.0086 0.09571,-0.02079 0.03948,-0.02826 0.05268,-0.115828 l 0.01706,-0.113149 -0.251879,-0.03798 z"
         style="stroke-width:0.0830493;fill:#ffffff;fill-opacity:1"
         id="path1976" />
      <path
         d="m 81.242984,51.918604 q 0.0413,-0.08503 0.103369,-0.105762 0.06253,-0.01941 0.146656,0.02146 l 0.31952,0.155214 -0.03913,0.08055 -0.306989,-0.149127 q -0.05728,-0.02782 -0.09812,-0.0189 -0.04127,0.0098 -0.06953,0.06799 -0.03609,0.07429 -0.0035,0.125535 0.03263,0.05125 0.115864,0.09168 l 0.247023,0.119997 -0.03913,0.08055 -0.479727,-0.233039 0.0313,-0.06444 0.07009,0.01967 0.0022,-0.0045 q -0.0281,-0.04463 -0.02641,-0.09137 0.0022,-0.04542 0.0265,-0.09554 z"
         style="stroke-width:0.0830493;fill:#ffffff;fill-opacity:1"
         id="path1978" />
      <path
         d="m 81.05957,52.275008 0.04357,0.04082 -0.100009,0.128555 0.280262,0.262622 0.109453,-0.09789 0.04502,0.04218 -0.149,0.159009 -0.07932,-0.05796 -0.0027,0.0029 q 0.01943,0.05639 0.01658,0.09872 -0.0028,0.04374 -0.04022,0.08367 -0.02313,0.02469 -0.04518,0.03948 -0.02273,0.01552 -0.04496,0.02469 l -0.04103,-0.07117 q 0.01742,-0.0055 0.03674,-0.01739 0.02005,-0.01121 0.03706,-0.02936 0.02926,-0.03122 0.0321,-0.07355 0.0028,-0.04233 -0.0169,-0.08674 -0.01975,-0.04441 -0.05895,-0.08115 l -0.140858,-0.131991 -0.117028,0.103061 -0.04356,-0.04082 z"
         style="stroke-width:0.0830493;fill:#ffffff;fill-opacity:1"
         id="path1980" />
      <path
         d="m 80.620833,52.707998 0.26395,0.463438 -0.06225,0.03546 -0.05014,-0.0619 -0.0043,0.0025 q 0.0028,0.0511 -0.0258,0.09142 -0.02894,0.04167 -0.08168,0.07171 -0.07003,0.03989 -0.135053,0.02425 -0.06539,-0.01429 -0.113159,-0.09816 l -0.176295,-0.309535 0.07782,-0.04432 0.168416,0.295701 q 0.03349,0.05879 0.07296,0.07181 0.0391,0.01437 0.09185,-0.01567 0.0709,-0.04038 0.07469,-0.102084 0.0029,-0.06121 -0.04336,-0.142486 L 80.54306,52.752361 Z"
         style="stroke-width:0.0830493;fill:#ffffff;fill-opacity:1"
         id="path1982" />
      <path
         d="m 79.4846,53.085314 -0.06008,0.707903 -0.19036,-0.01615 q -0.109061,-0.0093 -0.169149,-0.0543 -0.06017,-0.04405 -0.0521,-0.139232 0.0059,-0.0694 0.04297,-0.1062 0.03708,-0.0368 0.0974,-0.04166 l 4.2e-4,-0.005 q -0.04006,-0.01039 -0.07126,-0.03101 -0.0322,-0.02071 -0.04916,-0.0561 -0.01697,-0.03539 -0.01226,-0.09091 0.0082,-0.09617 0.07327,-0.14557 0.06511,-0.0494 0.170202,-0.04048 z m -0.232958,0.391654 q -0.07436,-0.0063 -0.108442,0.01876 -0.03417,0.02606 -0.03905,0.08357 -0.005,0.0585 0.02763,0.08623 0.03161,0.02765 0.115881,0.0348 l 0.09915,0.0084 0.01885,-0.222088 z m 0.02215,-0.331653 q -0.08527,-0.0072 -0.121013,0.02568 -0.03575,0.03292 -0.04054,0.08943 -0.0049,0.0575 0.02696,0.09416 0.03077,0.03756 0.119005,0.04505 l 0.114018,0.0097 0.02154,-0.253814 z"
         style="stroke-width:0.0830493;fill:#ffffff;fill-opacity:1"
         id="path1984" />
      <path
         d="m 78.756343,52.940499 q 0.0728,0.02964 0.103325,0.08397 0.0296,0.05395 -4.3e-5,0.126755 -0.03265,0.08018 -0.105918,0.09654 -0.07419,0.01599 -0.184063,-0.02553 l -0.107105,-0.04039 -0.0083,0.02027 q -0.02702,0.06635 -0.0036,0.103821 0.02304,0.03839 0.07926,0.06128 0.03963,0.01614 0.0797,0.02063 0.04007,0.0045 0.07983,-8e-4 l 0.0031,0.0743 q -0.04215,0.0033 -0.08979,-0.0011 -0.04857,-0.0047 -0.104782,-0.02762 -0.09308,-0.0379 -0.12558,-0.100554 -0.0338,-0.06211 0.0022,-0.150578 l 0.134711,-0.330839 0.06635,0.02702 -0.01855,0.07195 0.0037,0.0015 q 0.04617,-0.02632 0.09368,-0.02954 0.04751,-0.0032 0.101879,0.01892 z m -0.04122,0.06164 q -0.04147,-0.01689 -0.08249,-0.0164 -0.0414,0.0014 -0.07498,0.02319 -0.03395,0.0227 -0.05309,0.0697 l -0.01801,0.04424 0.0896,0.03326 q 0.0896,0.03326 0.137886,0.02284 0.04737,-0.01079 0.06613,-0.05687 0.01726,-0.04239 -0.0016,-0.07263 -0.01922,-0.02931 -0.06346,-0.04732 z"
         style="stroke-width:0.0830493;fill:#ffffff;fill-opacity:1"
         id="path1986" />
      <path
         d="m 78.1759,52.598767 q 0.04535,0.03728 0.06234,0.08086 0.01559,0.04372 0.01368,0.08208 l 0.0046,0.0038 0.04911,-0.04722 0.05535,0.04549 -0.480167,0.584214 -0.06688,-0.05497 0.116251,-0.141442 q 0.01769,-0.02152 0.03552,-0.04165 0.01706,-0.02076 0.03706,-0.04038 l -0.0031,-0.0025 q -0.03636,0.01133 -0.08227,0.0045 -0.04591,-0.0068 -0.0928,-0.04536 -0.07456,-0.06129 -0.07569,-0.15237 -0.0019,-0.09172 0.08466,-0.197029 0.08719,-0.106082 0.178168,-0.122752 0.09035,-0.0159 0.164144,0.04475 z m -0.03305,0.06686 q -0.05612,-0.04612 -0.115737,-0.02686 -0.05962,0.01926 -0.122801,0.09613 -0.06192,0.07533 -0.06927,0.137555 -0.0073,0.06222 0.04954,0.108976 0.05304,0.04359 0.115736,0.02686 0.0613,-0.0166 0.12258,-0.09116 0.06381,-0.07764 0.07102,-0.141262 0.0058,-0.06349 -0.05107,-0.110239 z"
         style="stroke-width:0.0830493;fill:#ffffff;fill-opacity:1"
         id="path1988" />
      <path
         d="m 78.087108,52.18465 q 0.01096,0.01661 0.01887,0.03404 0.0087,0.01688 0.01393,0.03015 l -0.05732,0.0378 q -0.0049,-0.01106 -0.01202,-0.02545 -0.0077,-0.01522 -0.01642,-0.02851 -0.0252,-0.03821 -0.058,-0.04638 -0.03197,-0.0087 -0.08529,0.0026 l -0.07652,0.0159 -0.326127,0.48326 -0.04821,-0.0731 0.191537,-0.278882 q 0.01863,-0.02778 0.04362,-0.05856 0.02444,-0.03162 0.04804,-0.0591 l -0.0016,-0.0025 q -0.03676,0.01113 -0.07407,0.02143 -0.03814,0.01085 -0.06937,0.01952 l -0.318345,0.08479 -0.0504,-0.07642 0.626632,-0.145073 q 0.0536,-0.0127 0.0986,-0.01496 0.04528,-0.0036 0.08327,0.01421 0.03745,0.01702 0.06922,0.0652 z"
         style="stroke-width:0.0830493;fill:#ffffff;fill-opacity:1"
         id="path1990" />
      <path
         d="m 77.463565,51.256233 -0.710309,-0.01407 0.0038,-0.191007 q 0.0022,-0.109431 0.04322,-0.172312 0.04006,-0.0629 0.135563,-0.06101 0.06964,0.0014 0.108762,0.03599 0.03912,0.03461 0.04789,0.0945 l 0.005,9.8e-5 q 0.0078,-0.04065 0.02633,-0.07312 0.01858,-0.03347 0.05279,-0.0527 0.03422,-0.01923 0.08993,-0.01812 0.0965,0.0019 0.150012,0.06368 0.05351,0.06177 0.05143,0.16722 z m -0.40593,-0.207083 q 0.0015,-0.07461 -0.02575,-0.106998 -0.02822,-0.03241 -0.08592,-0.03355 -0.0587,-0.0012 -0.08425,0.03316 -0.02554,0.03333 -0.02721,0.117892 l -0.002,0.09948 0.222842,0.0044 z m 0.332391,6.12e-4 q 0.0017,-0.08556 -0.03347,-0.119094 -0.03516,-0.03354 -0.09187,-0.03466 -0.0577,-0.0011 -0.09221,0.03301 -0.03549,0.03313 -0.03724,0.121674 l -0.0023,0.114405 0.254676,0.005 z"
         style="stroke-width:0.0830493;fill:#ffffff;fill-opacity:1"
         id="path1992" />
      <path
         d="m 77.565273,50.505896 q -0.02982,0.0897 -0.08864,0.118383 -0.05945,0.02742 -0.148204,-0.0021 l -0.337087,-0.112056 0.02825,-0.08498 0.323867,0.107661 q 0.06043,0.02009 0.09975,0.0059 0.03963,-0.01514 0.06004,-0.07651 0.02605,-0.07837 -0.013,-0.124907 -0.03905,-0.04654 -0.126868,-0.07573 l -0.260605,-0.08663 0.02825,-0.08498 0.506102,0.168241 -0.0226,0.06798 -0.07206,-0.01033 -0.0016,0.0047 q 0.0337,0.04056 0.03814,0.08713 0.0038,0.04531 -0.01376,0.09818 z"
         style="stroke-width:0.0830493;fill:#ffffff;fill-opacity:1"
         id="path1994" />
      <path
         d="m 77.700548,50.128514 -0.04849,-0.03483 0.0825,-0.140437 -0.311948,-0.224066 -0.09584,0.111253 -0.05011,-0.03599 0.127126,-0.176986 0.08616,0.04719 0.0023,-0.0032 q -0.02658,-0.05339 -0.02924,-0.09574 -0.0029,-0.04373 0.02904,-0.08818 0.01974,-0.02748 0.03968,-0.04501 0.02052,-0.01834 0.04137,-0.03031 l 0.04991,0.06525 q -0.01656,0.0077 -0.03418,0.022 -0.01843,0.01372 -0.03294,0.03392 -0.02496,0.03475 -0.0223,0.07709 0.0027,0.04234 0.028,0.08382 0.02534,0.04148 0.06898,0.07282 l 0.156783,0.112613 0.102677,-0.117365 0.04849,0.03483 z"
         style="stroke-width:0.0830493;fill:#ffffff;fill-opacity:1"
         id="path1996" />
      <path
         d="m 78.079512,49.642397 -0.32197,-0.425182 0.05711,-0.04325 0.05777,0.05486 0.004,-0.003 q -0.0094,-0.05031 0.01369,-0.09399 0.02327,-0.04508 0.07166,-0.08172 0.06425,-0.04866 0.130754,-0.0416 0.06669,0.0057 0.124961,0.08261 l 0.215047,0.283983 -0.07139,0.05406 -0.205436,-0.271291 q -0.04085,-0.05394 -0.08168,-0.06171 -0.04064,-0.0092 -0.08903,0.02748 -0.06505,0.04926 -0.06078,0.110929 0.0051,0.06107 0.06152,0.135637 l 0.16519,0.218144 z"
         style="stroke-width:0.0830493;fill:#ffffff;fill-opacity:1"
         id="path1998" />
      <path
         d="m 79.15668,49.120077 -0.03192,-0.70973 0.190852,-0.0086 q 0.109342,-0.0049 0.174748,0.03198 0.06536,0.0359 0.06965,0.131331 0.0031,0.06958 -0.02888,0.110863 -0.03201,0.04128 -0.0912,0.0539 l 2.24e-4,0.005 q 0.04107,0.0051 0.07467,0.02154 0.0346,0.01637 0.056,0.04928 0.0214,0.0329 0.0239,0.08857 0.0043,0.09642 -0.05384,0.153818 -0.05818,0.0574 -0.163542,0.06214 z m 0.180384,-0.418478 q 0.07455,-0.0034 0.105108,-0.03262 0.03051,-0.03026 0.02792,-0.08791 -0.0026,-0.05865 -0.03855,-0.08193 -0.03491,-0.02333 -0.119406,-0.01953 l -0.0994,0.0045 0.01001,0.222661 z m 0.0209,0.331735 q 0.08549,-0.0038 0.116679,-0.04111 0.03119,-0.03726 0.02864,-0.09392 -0.0026,-0.05765 -0.0389,-0.08988 -0.03536,-0.03327 -0.123829,-0.02929 l -0.114312,0.0051 0.01144,0.254469 z"
         style="stroke-width:0.0830493;fill:#ffffff;fill-opacity:1"
         id="path2000" />
      <path
         d="m 79.897949,49.169092 q -0.07606,-0.01984 -0.113442,-0.0697 -0.03642,-0.04961 -0.01657,-0.125667 0.02185,-0.08376 0.09235,-0.10959 0.07146,-0.02558 0.185821,0.0012 l 0.111475,0.026 0.0055,-0.02118 q 0.01809,-0.06932 -0.01004,-0.103397 -0.02788,-0.03504 -0.08661,-0.05036 -0.0414,-0.0108 -0.08171,-0.01001 -0.04031,7.94e-4 -0.07903,0.01126 l -0.01277,-0.07326 q 0.04136,-0.0087 0.08916,-0.01067 0.04877,-0.0017 0.107499,0.01365 0.09724,0.02537 0.137679,0.08322 0.04165,0.05714 0.01754,0.14957 l -0.09018,0.345644 -0.06932,-0.01808 0.009,-0.07376 -0.0039,-10e-4 q -0.04232,0.03215 -0.089,0.04157 -0.04668,0.0094 -0.10348,-0.0054 z m 0.03278,-0.06652 q 0.04333,0.0113 0.08393,0.0054 0.04086,-0.0068 0.07129,-0.03282 0.03068,-0.02696 0.0435,-0.07606 l 0.01206,-0.04621 -0.09318,-0.02123 q -0.09318,-0.02123 -0.13969,-0.0046 -0.04555,0.01691 -0.05811,0.06505 -0.01155,0.04429 0.01109,0.07179 0.0229,0.02654 0.06911,0.0386 z"
         style="stroke-width:0.0830493;fill:#ffffff;fill-opacity:1"
         id="path2002" />
      <path
         d="m 80.5179,49.432058 q -0.04981,-0.03107 -0.07232,-0.07208 -0.02113,-0.04133 -0.02423,-0.07961 l -0.0051,-0.0032 -0.04256,0.0532 -0.06079,-0.03791 0.400193,-0.641649 0.07345,0.04581 -0.09689,0.155346 q -0.01474,0.02364 -0.02981,0.04591 -0.01422,0.0228 -0.03149,0.04485 l 0.0034,0.0021 q 0.03458,-0.01596 0.08099,-0.01516 0.04641,8e-4 0.09791,0.03292 0.0819,0.05108 0.09485,0.141244 0.0138,0.09069 -0.05834,0.206359 -0.07267,0.11651 -0.160709,0.144859 -0.08752,0.0275 -0.168567,-0.02305 z m 0.02409,-0.07058 q 0.06163,0.03844 0.118246,0.0116 0.05661,-0.02684 0.10927,-0.111271 0.0516,-0.08274 0.05081,-0.145388 -7.97e-4,-0.06265 -0.06327,-0.101616 -0.05826,-0.03633 -0.118246,-0.0116 -0.05862,0.02442 -0.109697,0.106314 -0.05318,0.08527 -0.05207,0.149293 0.0025,0.0637 0.06496,0.102669 z"
         style="stroke-width:0.0830493;fill:#ffffff;fill-opacity:1"
         id="path2004" />
      <path
         d="m 80.659538,49.831221 q -0.01302,-0.01505 -0.02313,-0.0313 -0.01086,-0.0156 -0.01772,-0.02809 l 0.05192,-0.04492 q 0.0063,0.01033 0.01522,0.02367 0.0096,0.01409 0.01998,0.02613 0.02995,0.03462 0.06353,0.03846 0.03283,0.0045 0.08423,-0.01366 l 0.07381,-0.0257 0.260641,-0.521502 0.05729,0.06622 -0.153718,0.301385 q -0.01487,0.02996 -0.03565,0.06373 -0.02013,0.03452 -0.03996,0.06483 l 0.002,0.0023 q 0.035,-0.01581 0.07066,-0.03086 0.03641,-0.01571 0.06625,-0.02836 l 0.304645,-0.125396 0.05989,0.06923 -0.6025,0.225182 q -0.0515,0.01955 -0.09582,0.02763 -0.04442,0.0095 -0.08441,-0.0033 -0.03934,-0.01202 -0.0771,-0.05566 z"
         style="stroke-width:0.0830493;fill:#ffffff;fill-opacity:1"
         id="path2006" />
    </g>
  </g>
</svg>
